<?xml version="1.0" encoding="UTF-8"?>
<svg id="Bold" xmlns="http://www.w3.org/2000/svg" version="1.1" viewBox="0 0 512 512">
  <!-- Generator: Adobe Illustrator 29.5.0, SVG Export Plug-In . SVG Version: 2.1.0 Build 137)  -->
  <defs>
    <style>
      .st0 {
        fill: #fff;
      }
    </style>
  </defs>
  <path class="st0" d="M223.62,416c-8.48,0-16.61-3.37-22.61-9.37l-97.83-97.83c-29.1-29.18-29.1-76.42,0-105.6l97.83-97.83c12.5-12.49,32.76-12.49,45.26.01s12.49,32.76-.01,45.26l-97.83,97.81c-4.17,4.16-4.18,10.91-.02,15.08,0,0,.01.01.02.02l97.83,97.81c12.5,12.49,12.51,32.75.01,45.25-6.01,6.01-14.15,9.38-22.65,9.38Z"/>
  <path class="st0" d="M372.95,416c-8.48,0-16.61-3.37-22.61-9.37l-128-128c-12.5-12.49-12.51-32.75-.01-45.25,0,0,0,0,.01-.01l128-128c12.5-12.49,32.76-12.49,45.26.01s12.49,32.76-.01,45.26l-105.45,105.37,105.37,105.37c12.5,12.49,12.51,32.75.01,45.25-5.98,5.99-14.1,9.36-22.56,9.38Z"/>
</svg>