<?xml version="1.0" encoding="UTF-8"?>
<svg id="Bold" xmlns="http://www.w3.org/2000/svg" version="1.1" viewBox="0 0 512 512">
  <!-- Generator: Adobe Illustrator 29.5.0, SVG Export Plug-In . SVG Version: 2.1.0 Build 137)  -->
  <defs>
    <style>
      .st0 {
        fill: #fff;
      }
    </style>
  </defs>
  <path class="st0" d="M279.47,416c-17.67,0-32.01-14.31-32.01-31.99,0-8.5,3.37-16.64,9.38-22.65l97.83-97.81c4.17-4.16,4.18-10.91.02-15.08,0,0-.01-.01-.02-.02l-97.75-97.81c-12.5-12.49-12.51-32.76-.01-45.26s32.76-12.51,45.26-.01l97.83,97.83c29.1,29.18,29.1,76.42,0,105.6l-97.83,97.83c-6.02,6.02-14.19,9.39-22.7,9.37Z"/>
  <path class="st0" d="M130.13,416c-17.67,0-32.01-14.31-32.01-31.99,0-8.5,3.37-16.64,9.38-22.65l105.45-105.37-105.37-105.37c-12.5-12.49-12.51-32.76-.01-45.26,12.49-12.5,32.76-12.51,45.26-.01h0l128,128c12.5,12.49,12.51,32.75.01,45.25,0,0,0,0-.01.01l-128,128c-6.02,6.02-14.19,9.39-22.7,9.37Z"/>
</svg>